<svg xmlns="http://www.w3.org/2000/svg" viewBox="0 0 1932 640">
  <style>
    .cls-1 { fill: #1e1e28; }
    .cls-2 { fill: #ffc113; }
    .cls-3 { fill: none; stroke: #1e1e28; stroke-linecap: round; stroke-miterlimit: 10; stroke-width: 12px; }
  </style>
  <title>Happyculture</title>
  <g>
    <g>
      <path class="cls-1" d="M704,257.26a10.83,10.83,0,0,1,21.65,0v41.36h58.78V257.26a10.83,10.83,0,0,1,21.65,0V360.75a10.83,10.83,0,0,1-21.65,0V318.68H725.68v42.07a10.83,10.83,0,0,1-21.65,0Z"/>
      <path class="cls-1" d="M829.17,343.85v-.35c0-20.07,15.66-29.92,38.36-29.92a77.51,77.51,0,0,1,25,3.87v-2.29c0-13.2-8.09-20.24-23-20.24a55.09,55.09,0,0,0-20.59,3.7,12,12,0,0,1-3.35.53,8.86,8.86,0,0,1-9-8.8,9.29,9.29,0,0,1,5.8-8.45,79.75,79.75,0,0,1,29.92-5.46c13.91,0,24.29,3.7,30.8,10.39,6.87,6.68,10,16.54,10,28.68v45.76a10.14,10.14,0,0,1-10.38,10.21c-6.16,0-10.38-4.22-10.38-9V359c-6.34,7.56-16,13.55-30.27,13.55C844.65,372.54,829.17,362.5,829.17,343.85Zm63.71-6.69v-6.33a58.91,58.91,0,0,0-21.12-3.7c-13.73,0-21.83,5.81-21.83,15.49V343c0,9,7.92,14.08,18.13,14.08C882.14,357.05,892.88,349,892.88,337.16Z"/>
      <path class="cls-1" d="M938.64,287.36a10.52,10.52,0,0,1,10.56-10.74,10.66,10.66,0,0,1,10.73,10.74v5.8c6.86-9.68,16.54-17.42,31.68-17.42,21.82,0,43.12,17.25,43.12,48.22v.35c0,30.8-21.12,48.23-43.12,48.23-15.49,0-25.17-7.75-31.68-16.37v32.91a10.65,10.65,0,0,1-21.29,0Zm74.44,36.95V324c0-17.95-12.14-29.74-26.57-29.74s-27.11,12-27.11,29.74v.35c0,17.78,12.67,29.75,27.11,29.75C1001.11,354.06,1013.08,342.62,1013.08,324.31Z"/>
      <path class="cls-1" d="M1056.73,287.36a10.52,10.52,0,0,1,10.56-10.74A10.66,10.66,0,0,1,1078,287.36v5.8c6.87-9.68,16.55-17.42,31.68-17.42,21.83,0,43.12,17.25,43.12,48.22v.35c0,30.8-21.12,48.23-43.12,48.23-15.48,0-25.16-7.75-31.68-16.37v32.91a10.65,10.65,0,0,1-21.29,0Zm74.45,36.95V324c0-17.95-12.15-29.74-26.58-29.74s-27.1,12-27.1,29.74v.35c0,17.78,12.67,29.75,27.1,29.75C1119.21,354.06,1131.18,342.62,1131.18,324.31Z"/>
      <path class="cls-1" d="M1174.47,396.65c-3.17-1.06-6.69-3.7-6.69-8.8a8.57,8.57,0,0,1,8.63-8.8,10.93,10.93,0,0,1,3.87.7,23.87,23.87,0,0,0,7.39,1.23c6.34,0,9.68-2.64,13.2-9.85l.71-1.94-34.5-77.08a14.51,14.51,0,0,1-1.23-5.11,10.22,10.22,0,0,1,10.56-10.38c5.45,0,8.45,3.17,10.38,8.09l25,61.78L1235,284.71c1.76-4.39,4.76-8.09,10.21-8.09a10.07,10.07,0,0,1,10.21,10,19.1,19.1,0,0,1-.88,5.1l-34,81.49c-7.92,19-16.36,26.05-31.32,26.05A37.63,37.63,0,0,1,1174.47,396.65Z"/>
      <path class="cls-1" d="M1266.87,324.67v-.36c0-26.39,20.42-48.57,48.4-48.57,14.61,0,24.64,4.75,32.56,11.62a10.08,10.08,0,0,1,3.34,7.39,9.69,9.69,0,0,1-9.85,9.68,10.85,10.85,0,0,1-6.34-2.12c-5.46-4.57-11.44-7.92-19.89-7.92-15.48,0-26.92,13.38-26.92,29.57v.35c0,16.55,11.44,29.75,27.8,29.75,8.45,0,15-3.35,20.77-8.27a9,9,0,0,1,15,7,8.3,8.3,0,0,1-3,6.68c-8.27,7.92-18.31,13.2-33.79,13.2C1287.29,372.71,1266.87,351.07,1266.87,324.67Z"/>
      <path class="cls-1" d="M1455,360.92a10.74,10.74,0,0,1-21.47,0v-4.75c-6,8.8-14.61,16.37-29,16.37-20.94,0-33.09-14.08-33.09-35.73V287.36a10.65,10.65,0,1,1,21.3,0v43.11c0,14.44,7.22,22.53,19.89,22.53,12.32,0,20.94-8.45,20.94-22.88V287.36a10.67,10.67,0,0,1,10.74-10.74A10.78,10.78,0,0,1,1455,287.36Z"/>
      <path class="cls-1" d="M1482.82,251.8a10.49,10.49,0,0,1,10.56-10.56,10.64,10.64,0,0,1,10.74,10.56V360.92a10.65,10.65,0,0,1-21.3,0Z"/>
      <path class="cls-1" d="M1536.32,344.91V296h-3.52a9.16,9.16,0,0,1,0-18.31h3.52V261.84a10.65,10.65,0,0,1,21.3,0v15.83h16.72a9.16,9.16,0,1,1,0,18.31h-16.72v45.58c0,8.27,4.22,11.62,11.44,11.62a50.16,50.16,0,0,0,5.28-.53,9,9,0,0,1,9,8.8,9.16,9.16,0,0,1-5.63,8.27,42.4,42.4,0,0,1-14.6,2.46C1547.41,372.18,1536.32,365.32,1536.32,344.91Z"/>
      <path class="cls-1" d="M1686.8,360.92a10.74,10.74,0,0,1-21.47,0v-4.75c-6,8.8-14.61,16.37-29,16.37-20.94,0-33.09-14.08-33.09-35.73V287.36a10.65,10.65,0,1,1,21.3,0v43.11c0,14.44,7.21,22.53,19.89,22.53,12.32,0,20.94-8.45,20.94-22.88V287.36a10.67,10.67,0,0,1,10.74-10.74,10.78,10.78,0,0,1,10.73,10.74Z"/>
      <path class="cls-1" d="M1713.38,287.36a10.52,10.52,0,0,1,10.56-10.74,10.66,10.66,0,0,1,10.73,10.74v9.5c4.93-11.62,14.08-20.42,23.41-20.42,6.69,0,10.56,4.4,10.56,10.56a10,10,0,0,1-8.45,10.21c-15.13,2.64-25.52,14.26-25.52,36.26v27.45a10.63,10.63,0,0,1-10.73,10.56,10.48,10.48,0,0,1-10.56-10.56Z"/>
      <path class="cls-1" d="M1825.66,372.71c-26.92,0-47.69-19.53-47.69-48.22v-.35c0-26.58,18.83-48.4,45.41-48.4,29.56,0,44.17,24.29,44.17,45.76a10,10,0,0,1-10,10.21h-58.25c2.28,15.13,13,23.58,26.75,23.58a33.41,33.41,0,0,0,22-8.1,7.92,7.92,0,0,1,5.45-1.93,8.38,8.38,0,0,1,8.45,8.62,9.26,9.26,0,0,1-2.82,6.51C1850.66,368,1840.1,372.71,1825.66,372.71Zm21.12-55.08c-1.4-13.73-9.5-24.47-23.58-24.47-13,0-22.17,10-24.11,24.47Z"/>
    </g>
    <circle class="cls-2" cx="320" cy="320" r="256"/>
    <g>
      <path class="cls-3" d="M384.16,174.76s-24.21,2.77-38.39,33.55"/>
      <path class="cls-3" d="M260.34,174.76c4.21.77,29.08,5.72,40.81,27.67,7.72,14.44,10.5,37.33-.17,46.17a19,19,0,0,1-15.56,3.81c-1.8-.39-9.52-2.36-11.76-9.34-1.79-5.58.41-12.82,5.53-15.22a10.2,10.2,0,0,1,8.3,0,10.47,10.47,0,0,1,4.84,4.5"/>
      <path class="cls-3" d="M337.47,236a15.18,15.18,0,0,1,6.74-7.78,14.67,14.67,0,0,1,8.65-1.73,12.17,12.17,0,0,1,11.41,14.87s-1.19,6.17-8.65,10.72c-9.28,5.66-27.59-.8-47-15.23"/>
      <path class="cls-3" d="M280,305.7c-22.18-12.26-53.58-26.84-77.44-26.84-39.08,0-56.37,26.63-56.37,49.81s13.83,52.56,56.37,52.56c75.4,0,123.13-128.65,123.13-128.65"/>
      <path class="cls-3" d="M337.93,318.8c16.1-10.28,65.47-39.94,99.49-39.94,39.08,0,56.37,26.63,56.37,49.81S480,381.23,437.42,381.23c-33.55,0-142.49-66.4-142.49-66.4"/>
      <path class="cls-3" d="M318.44,332.12c-8.94,7.28-45.14,38.63-45.82,80.76a53.29,53.29,0,0,0,12.45,36c2.33,2.77,15.64,18,36.31,16.25,14.38-1.19,28.42-10.25,34.24-24.55.81-2,7.36-18.88-2.42-33.9-1.32-2-7.76-11.9-20.06-14.18-12.13-2.24-27.3,3.42-32.51,16.26-4.45,11-1,25.75,8.65,31.13,5.71,3.18,15.26,3.77,19.71-1.73,3.45-4.27,3.87-12.34-.34-15.57a8.71,8.71,0,0,0-6.23-1.38"/>
    </g>
  </g>
</svg>
